<svg xmlns="http://www.w3.org/2000/svg" viewBox="0 0 1499.18 1499.18">
  <g id="PolicyPanel">
    <path fill="#6aff4e" d="M1499.18 299.84C1499.18 134.35 1364.84 0 1199.35 0H299.84C134.35 0 0 134.35 0 299.84v899.51c0 165.49 134.35 299.83 299.84 299.83h899.51c165.49 0 299.83-134.34 299.83-299.83Z"/>
    <path fill="#274100" d="M1417.4 321c0-132.8-107.83-240.61-240.62-240.61H321.27C188.48 80.41 80.66 188.22 80.66 321v857.79c0 132.8 107.82 240.61 240.61 240.61h855.51c132.79 0 240.62-107.81 240.62-240.61Z"/>
  </g>
  <svg id="Car" x="238" y="110" width="1180" height="970" viewBox="10 14 52 44" overflow="visible">
    <g transform="matrix(1.03587 0 0 1.03587 -.961912 4.0476)">
      <g transform="translate(-2.97333 -3.92577)">
        <path fill="#565656" d="M24.944 48.952c0-.832-.676-1.509-1.509-1.509h-3.018c-.833 0-1.51.677-1.51 1.509v5.749c0 .833.677 1.509 1.51 1.509h3.018c.833 0 1.509-.676 1.509-1.509Z"/>
      </g>
      <g transform="translate(23.234 -3.60563)">
        <path fill="#565656" d="M24.944 48.952c0-.832-.676-1.509-1.509-1.509h-3.018c-.833 0-1.51.677-1.51 1.509v5.749c0 .833.677 1.509 1.51 1.509h3.018c.833 0 1.509-.676 1.509-1.509Z"/>
      </g>
      <g transform="matrix(1.13503 0 0 .801117 -7.69224 8.88893)">
        <path fill="#0089b6" d="M50.507 39.882 19.434 39.846s-.137-2.224.705-4.21c.489-1.154 3.672-16.406 5.067-16.988 2.786-1.163 17.707-.72 19.771.055 2.035.763 4.054 14.178 5.005 16.362.286.657.444 1.868.503 2.93.057 1.009.022 1.887.022 1.887Z"/>
      </g>
      <g transform="translate(.16049 -1.9171)">
        <path fill="#0089b6" d="M15.885 37.388a.671.671 0 0 0-.671-.671h-2.19a.671.671 0 0 0-.671.671v1.343c0 .37.301.671.671.671h2.19a.671.671 0 0 0 .671-.671Z"/>
      </g>
      <g transform="translate(35.2435 -1.9171)">
        <path fill="#0089b6" d="M15.885 37.388a.671.671 0 0 0-.671-.671h-2.19a.671.671 0 0 0-.671.671v1.343c0 .37.301.671.671.671h2.19a.671.671 0 0 0 .671-.671Z"/>
      </g>
      <g transform="matrix(1.03169 0 0 .453264 -3.81896 16.7635)">
        <path fill="#bfe3ed" d="M48.093 40.298c.113 1.161-25.618.613-26.205-.316-.512-.812 2.37-20.423 2.965-21.327 1.337-2.033 18.347-1.268 20.28.005.576.378 1.986 11.605 2.96 21.638Z"/>
      </g>
      <g transform="matrix(1.02678 0 0 1.20915 -.856901 -15.1997)">
        <path fill="#0089b6" d="M49.174 45.45c0-.407-.389-.737-.868-.737H15.694c-.479 0-.868.33-.868.737v5.899c0 .407.389.737.868.737h32.612c.479 0 .868-.33.868-.737Z"/>
      </g>
      <g transform="matrix(1 0 0 1.55454 -.345216 -26.1794)">
        <path fill="#fecc34" d="M24.858 43.311c0-.257-.325-.467-.726-.467h-4.986c-.401 0-.727.21-.727.467v.935c0 .257.326.467.727.467h4.986c.401 0 .726-.21.726-.467Z"/>
      </g>
      <g transform="matrix(1 0 0 1.55454 21.0678 -26.1794)">
        <path fill="#fecc34" d="M24.858 43.311c0-.257-.325-.467-.726-.467h-4.986c-.401 0-.727.21-.727.467v.935c0 .257.326.467.727.467h4.986c.401 0 .726-.21.726-.467Z"/>
      </g>
      <g transform="translate(-.138996 4.43131)">
        <path fill="#353535" d="M25.612 39.486h13.413v.518H25.612z"/>
      </g>
    </g>
  </svg>
  <g id="NoParkingMark" fill="#f00">
    <path fill-rule="evenodd" d="M743.29 139c336.89 0 610.41 273.52 610.41 610.41s-273.52 610.45-610.41 610.45S132.83 1086.26 132.83 749.37 406.4 139 743.29 139m0 99.85c281.76 0 510.56 228.79 510.56 510.56s-228.8 510.56-510.56 510.56S232.73 1031.18 232.73 749.37 461.48 238.81 743.29 238.81"/>
    <path fill-rule="evenodd" d="M1251.41 1034.28a57.66 57.66 0 0 0-19.24-79.22l-892-543.33a57.65 57.65 0 1 0-60 98.46l892 543.33a57.68 57.68 0 0 0 79.24-19.24"/>
  </g>
</svg>
